<svg xmlns="http://www.w3.org/2000/svg" xml:space="preserve" viewBox="0 0 960 205.469"><switch><g><path fill="#393939" d="M960 92.935V75.813h-21.27V49.499h-.618l-19.498 6.11-.598.656v19.547h-31.071V64.8c0-4.898 1.215-9.192 3.644-11.616 1.833-3.03 5.477-4.295 9.121-4.295 3.048 0 6.096.608 9.122 2.476h1.215V33.636h-.598c-3.047-1.262-6.691-1.867-11.551-1.867-6.095 0-11.552 1.867-16.473 4.292-4.859 2.424-8.504 6.112-11.552 11.012q-3.644 7.347-3.644 16.516v12.223h-14.64v17.122h14.64v71.57h20.714v-71.57h31.071v45.255c0 18.943 8.504 28.135 26.191 28.135 3.027 0 5.477 0 8.503-.606 3.645-1.214 5.477-1.87 6.692-2.476h.597v-17.124l-1.215.607c-1.215.657-2.429 1.263-4.241 1.868-1.833.606-3.047.606-4.262.606-3.645 0-6.692-1.211-8.504-3.081-1.833-2.424-3.047-6.111-3.047-11.616V92.933H960zm-132.169 26.921c0-9.192-1.833-16.516-6.096-21.416-4.241-4.9-9.718-7.324-17.069-7.324-7.907 0-13.363 2.424-17.626 7.324-4.262 5.505-6.691 12.83-6.691 22.021 0 9.142 2.429 16.517 6.691 21.418 4.263 4.848 9.719 7.322 17.626 7.322 7.351 0 13.425-2.474 17.069-7.322 4.263-4.9 6.096-12.276 6.096-22.023m9.78-33.64c7.886 7.932 11.551 18.943 11.551 33.034 0 14.04-3.664 25.658-12.169 34.245-7.948 8.535-19.499 12.83-33.542 12.83-13.363 0-24.359-4.295-32.266-12.224-7.907-7.981-12.169-18.991-12.169-33.032 0-14.699 4.262-26.316 12.169-34.853 8.566-7.978 20.117-12.221 34.098-12.221 14.023 0 24.977 3.635 32.328 12.221m-110.262 26.266c-6.733-2.424-10.995-4.851-12.21-6.718-1.812-1.214-3.027-3.638-3.027-6.719 0-2.424 1.215-4.292 3.644-6.111 1.812-1.818 4.859-2.424 8.504-2.424 3.706 0 7.35.606 10.995 1.211 3.645 1.213 6.692 3.031 9.121 4.294l.618.606V77.629c-2.451-1.211-5.478-1.817-9.739-3.029-3.645-.606-7.289-.606-10.378-.606-9.739 0-17.645 2.424-23.719 7.324-6.733 4.897-9.781 11.616-9.781 19.545 0 4.295.618 7.981 1.833 11.011 1.812 3.081 3.645 6.112 6.692 7.981 2.471 2.424 6.733 4.9 12.807 7.324 4.262 1.819 7.907 3.687 10.337 4.9 2.429 1.211 3.705 2.425 4.921 4.292.597 1.213 1.215 2.427 1.215 4.851 0 5.505-4.304 8.586-13.425 8.586-3.644 0-7.309-.607-11.551-1.819-4.304-1.87-8.566-3.687-11.613-6.11l-1.216-.657v20.202h.618c2.43 1.819 6.692 2.425 10.995 3.687 4.242.608 8.504 1.214 11.552 1.214 10.934 0 19.499-2.476 25.573-7.324 6.692-5.505 9.739-12.273 9.739-20.202 0-6.113-1.833-11.013-4.859-15.305-3.665-4.244-9.739-7.93-17.646-11.012m-67.64 7.374c0-9.192-1.811-16.516-6.074-21.416-4.262-4.9-9.78-7.324-17.069-7.324-7.309 0-13.383 2.424-17.687 7.324-4.262 5.505-6.692 12.83-6.692 22.021 0 9.142 2.43 16.517 6.692 21.418 4.304 4.848 10.378 7.322 17.687 7.322 7.907 0 13.425-2.474 17.687-7.322 3.644-4.9 5.456-12.276 5.456-22.023m10.337-33.64c7.35 7.932 11.613 18.943 11.613 33.034 0 14.04-4.263 25.658-12.828 34.245-7.907 8.535-19.458 12.83-33.48 12.83-13.384 0-24.379-4.295-32.286-12.224-7.907-7.981-12.21-18.991-12.21-33.032 0-14.699 4.303-26.316 12.21-34.853 8.525-7.978 20.117-12.221 34.715-12.221 13.425 0 24.359 3.635 32.266 12.221M581.136 74.6c-4.859 0-9.739 1.213-13.425 4.899-3.644 3.03-6.074 6.716-7.907 11.617h-.617V75.813h-20.714v88.692h20.714V119.25c0-7.981 1.832-14.091 5.477-18.992 3.047-4.9 7.968-7.324 13.425-7.324 1.833 0 3.644.606 6.095 1.213 2.429.606 3.645 1.211 4.859 1.868l.597.606V75.812c-1.812-1.212-4.859-1.212-8.504-1.212m-68.257.606c-3.645-1.211-7.29-1.211-11.552-1.211-9.121 0-17.667 1.818-24.976 6.111-7.289 3.638-12.766 9.748-16.452 17.124-3.665 7.322-5.477 15.911-5.477 25.051 0 8.586 1.812 15.91 5.477 22.629 3.686 6.718 8.545 12.224 15.237 15.91s14.043 5.506 22.546 5.506c9.739 0 18.305-1.819 24.977-5.506l.617-.606v-18.991l-1.215.657c-3.047 2.424-6.074 4.24-9.78 5.505-3.645 1.211-7.289 1.817-10.336 1.817-7.907 0-14.64-2.474-19.499-7.322-4.262-5.508-6.692-12.276-6.692-21.418 0-8.586 2.43-15.911 7.289-21.416s11.613-7.929 19.499-7.929c6.692 0 13.446 2.424 19.52 6.718l1.215.606V78.239h-.617c-2.431-1.215-5.458-2.426-9.781-3.033m-82.836-36.721c-3.644 0-6.692 1.265-9.122 3.689-2.43 1.819-3.644 4.9-3.644 8.586 0 3.03 1.215 6.111 3.644 8.536 2.43 1.818 5.477 3.081 9.122 3.081 3.047 0 6.136-1.263 8.566-3.081 2.43-2.425 3.645-5.505 3.645-8.536 0-3.687-1.215-6.112-3.645-8.586-2.43-2.424-5.519-3.689-8.566-3.689m-10.934 126.02h20.714V75.813h-20.714zM370.372 40.961h28.621v123.544h-20.714V86.216c0-5.505 0-13.483.597-22.626-1.215 3.687-1.833 7.929-3.047 9.797l-36.527 91.118H325.28L288.751 74.6c-.618-2.476-1.833-6.111-3.047-11.01h-.618c.618 2.424.618 4.9.618 7.929.597 6.719.597 12.224.597 17.124v75.862h-20.096V40.961h30.433l30.453 77.683c3.089 6.716 4.921 12.222 5.539 15.859h.597l5.477-15.859z"/><path fill="#f25022" d="M0 0h97.482v97.834H0z"/><path fill="#7fba00" d="M107.816 0h96.872v97.834h-96.872z"/><path fill="#00a4ef" d="M0 107.634h97.482v97.834H0z"/><path fill="#ffb900" d="M107.816 107.634h96.872v97.834h-96.872z"/></g></switch></svg>