<svg xmlns="http://www.w3.org/2000/svg" width="72.019997mm" height="14.17mm" viewBox="0 0 72.019996 14.17"><path d="M51.96 7.314c-.993-.626-1.812-1.486-2.457-2.52-.216.447-.574 1.111-1.073 1.688s-.978.888-1.44 1.174L45.714 6.43c.86-.441 1.557-1.007 2.086-1.829.53-.822.794-1.696.794-2.623V.355h1.694v1.623c0 .854.26 1.666.78 2.438.52.77 1.18 1.252 1.98 1.577zM67.249 4.468h2.999V3.1h-3Zm-1.603-2.596h-3.183v3.742h3.183zM60.734 6.88V.606h6.515v1.032h2.999V0h1.764v7.793h-1.764V5.834h-3V6.88zM55.658 12.145c-.445.26-1.105.39-1.98.39-.881 0-1.545-.132-1.992-.394-.446-.262-.67-.603-.67-1.02 0-.414.222-.753.664-1.018.442-.265 1.108-.398 1.998-.398.884 0 1.546.131 1.987.393.44.263.66.603.66 1.022 0 .424-.223.765-.667 1.025m1.217-3.223c-.771-.575-1.838-.862-3.197-.862-1.366 0-2.435.285-3.208.855-.775.57-1.161 1.304-1.161 2.205 0 .911.388 1.646 1.164 2.206.775.558 1.844.838 3.205.838 1.355 0 2.42-.281 3.194-.842.773-.562 1.16-1.296 1.16-2.202 0-.89-.386-1.623-1.157-2.198M69.455 12.145c-.445.26-1.105.39-1.98.39-.881 0-1.545-.132-1.992-.394-.447-.262-.67-.603-.67-1.02 0-.414.222-.753.663-1.018.443-.265 1.109-.398 1.998-.398.885 0 1.547.131 1.987.393.44.263.66.603.66 1.022 0 .424-.222.765-.666 1.025m1.217-3.223c-.772-.575-1.838-.862-3.198-.862-1.364 0-2.434.285-3.208.855-.774.57-1.16 1.304-1.16 2.205 0 .911.388 1.646 1.164 2.206.775.558 1.844.838 3.204.838 1.356 0 2.42-.281 3.194-.842.774-.562 1.161-1.296 1.161-2.202 0-.89-.386-1.623-1.157-2.198M56.478 7.918V4.403h-1.289v3.071h-1.736V0h1.736v2.91h1.289V0h1.75v7.918z" style="fill:#90867d;fill-opacity:1;fill-rule:nonzero;stroke:none;stroke-width:.380757"/><path d="M42.157 11.053H33.34V.033H30.39v13.38h13.478zM9.723.034 0 13.414h3.292l2.641-3.637h4.347V7.446H7.627l3.583-4.932v10.9h2.946V.033ZM25.037 10.571c-.431.364-1.04.48-1.61.48h-4.03V7.485h3.954c.702 0 1.261.17 1.663.504.388.324.583.765.583 1.31 0 .51-.162.945-.56 1.272m-5.64-8.177H23c.512 0 .953.137 1.238.386.284.247.42.575.42 1.008 0 .417-.13.742-.402.99-.273.25-.655.377-1.137.377h-3.722zm8.608 4.705a3.681 3.681 0 0 0-1.388-1.244c.638-.571.96-1.354.96-2.333 0-1.052-.376-1.908-1.111-2.541-.73-.63-1.706-.947-2.91-.947h-7.103v13.38h7.387c1.443 0 2.614-.375 3.479-1.114.87-.746 1.315-1.75 1.315-2.983 0-.79-.192-1.552-.629-2.218" style="fill:#ee2d23;fill-opacity:1;fill-rule:nonzero;stroke:none;stroke-width:.380757"/></svg>