<svg xmlns="http://www.w3.org/2000/svg" width="371.62186pt" height="75pt" viewBox="0 0 371.62185 74.999997"><path fill="#341b6f" d="M165.06 38V22.64h-14.13V38h-6.3V2.714h6.3v15.529h14.13V2.714h6.35v35.287zM189.299 14.061c-2.274 0-4.972.977-5.504 7.275h10.109c.105-5.211-1.694-7.275-4.605-7.275m-.424 24.485c-6.347 0-11.48-2.986-11.48-13.793 0-10.8 6.243-14.49 12.382-14.49 6.03 0 10.37 3.15 10.37 12.047 0 .98-.051 1.633-.159 2.771h-16.35c.37 7.546 3.017 9.066 6.296 9.066 2.54 0 5.928-.922 9.579-2.065l.953 3.91c-4.445 1.465-7.834 2.554-11.59 2.554M222.378 38l-.265-4.829h-.054c-3.12 3.584-6.295 5.373-9.204 5.373-4.13 0-7.2-1.682-7.2-8.738V10.804h6.085v17.917c0 4.122.848 5.317 2.806 5.317 1.482 0 3.016-1.249 4.71-2.933.899-.976 1.747-2.007 2.433-3.094V10.804h6.087v27.197zM250.057 38V20.195c0-2.874-.053-5.427-2.592-5.427-1.483 0-2.86.815-4.816 2.553-.791.813-1.693 2.007-2.487 3.201v17.48h-6.085V10.804h5.45l.211 5.047h.054c2.806-3.69 6.139-5.588 9.418-5.588 5.717 0 6.935 3.312 6.935 9.282V38zM278.265 15.038c-1.428-.272-3.916-.651-5.187-.651-3.066 0-5.661 1.412-5.661 10.153 0 8.359 2.012 9.823 4.129 9.823 1.586 0 3.546-1.246 6.72-4.668zm-4.974 34.31c-3.757 0-7.462-.818-10.741-1.792l1.32-4.07c3.495.758 6.458 1.463 9.845 1.463 3.386 0 5.026-2.171 5.026-5.429 0-2.115-.21-3.637-.37-5.316-3.174 3.201-5.45 4.447-8.516 4.447-4.394 0-8.788-2.876-8.788-13.19 0-13.463 6.933-15.09 12.753-15.09 3.176 0 7.357.707 10.481 1.41v18.511c0 3.53.578 5.104.578 8.74 0 5.376-3.068 10.316-11.588 10.316M307.535 38c-3.757-5.754-6.511-8.576-10.268-14.005V38h-6.085V0h6.085v22.908c4.232-2.766 7.146-6.731 9.58-12.104h6.878c-3.227 6.516-5.82 10.15-9.844 12.865 3.757 4.722 7.092 7.657 11.64 14.332zM335.054 38l-.264-4.829h-.054c-3.124 3.584-6.298 5.373-9.207 5.373-4.129 0-7.197-1.682-7.197-8.738V10.804h6.085v17.917c0 4.122.845 5.317 2.808 5.317 1.478 0 3.012-1.249 4.707-2.933.9-.976 1.745-2.007 2.434-3.094V10.804h6.087v27.197zM363.633 38c-3.757-5.754-6.506-8.576-10.265-14.005V38h-6.085V0h6.085v22.908c4.234-2.766 7.143-6.731 9.579-12.104h6.878c-3.227 6.516-5.82 10.15-9.846 12.865 3.76 4.722 7.092 7.657 11.643 14.332z" style="stroke-width:2.3421"/><path fill="#ec008c" d="m35.292 37.997 37 37.003 37.004-37.003-37.003-37ZM0 2.707h28.232v28.232H0ZM0 45.052h28.232v28.234H0Z" style="stroke-width:2.3421"/><path fill="#341b6f" d="M144.331 73.267V55.563h3.289v15.044h7.249v2.66zM157.314 59.608h3.204v13.655h-3.204zm1.628-2.063c-1.22 0-1.926-.626-1.926-1.792 0-1.084.705-1.738 1.926-1.738 1.248 0 1.927.654 1.927 1.738 0 1.166-.679 1.792-1.927 1.792M172.249 57.194c-1.169-.328-2.227-.518-2.986-.518-.953 0-1.412.41-1.412 1.413 0 .733.053 1.248.107 1.955h3.666v2.525h-3.584v10.699h-3.176V62.569h-1.93v-2.525h1.874c0-.653-.08-1.412-.08-2.01 0-2.634 1.52-3.99 4.479-3.99 1.248 0 2.798.353 3.64.653zM178.768 61.672c-1.195 0-2.446.543-2.687 2.907h5.075c.054-1.876-.815-2.907-2.388-2.907m-.136 11.84c-3.26 0-5.921-1.495-5.921-6.98 0-5.211 3.206-7.303 6.436-7.303 3.07 0 5.295 1.682 5.295 6.055 0 .543-.028 1.222-.081 1.71h-8.362c.213 3.257 1.546 3.775 3.176 3.775 1.305 0 3.043-.46 4.94-1.087l.49 2.47c-2.334.926-4.071 1.36-5.973 1.36M193.108 55.561h3.286v17.701h-3.286zM208.72 73.267v-8.825c0-1.22-.025-2.335-1.304-2.335-.73 0-1.435.328-2.412 1.115-.412.295-.843.73-1.25 1.22v8.825h-3.205V59.5h2.876l.108 2.2h.03c1.41-1.495 3.123-2.474 4.807-2.474 2.934 0 3.555 1.687 3.555 4.834v9.207zM218.688 73.43c-1.627 0-3.609-.598-4.806-1.141l.68-2.443c1.358.433 3.178.869 4.344.869 1.548 0 2.174-.572 2.174-1.279 0-.539-.38-1.03-1.387-1.436l-2.468-.95c-1.577-.626-2.745-1.738-2.745-3.722 0-1.871 1.548-4.099 5.077-4.099 1.413 0 3.097.38 4.535.977l-.623 2.497c-1.684-.541-3.069-.813-4.13-.813-1.33 0-1.789.513-1.789 1.06 0 .54.405 1.031 1.492 1.467l2.47.977c1.928.73 2.772 2.063 2.772 3.721 0 1.874-1.387 4.314-5.596 4.314M235.227 73.267l-.136-2.17h-.028c-1.63 1.709-3.204 2.414-4.698 2.414-2.117 0-3.693-.87-3.693-4.506V59.5h3.206v8.935c0 1.762.43 2.254 1.384 2.254.733 0 1.492-.38 2.361-1.115a9.359 9.359 0 0 0 1.25-1.328V59.5h3.205v13.767zM249.296 62.624c-.597-.164-1.03-.22-1.412-.22-1.359 0-2.307.76-3.23 2.854v8.008h-3.207V59.502h2.853l.136 2.388h.028c1.059-1.981 2.307-2.578 3.855-2.578.572 0 1.195.133 1.656.297zM258.585 67.32a14.873 14.873 0 0 0-1.358-.08c-2.907 0-3.34.678-3.34 1.982 0 1.195.46 1.656 1.382 1.656.897 0 2.066-.57 3.316-1.792zm.434 5.947-.164-1.684h-.029c-1.327 1.248-2.632 1.958-4.288 1.958-2.307 0-3.883-1.143-3.883-3.968 0-2.524 1.002-4.56 6.598-4.56.461 0 .925.026 1.332.057v-.846c0-1.522-.192-2.279-1.955-2.279-1.656 0-3.558.895-5.296 1.928l-.3-2.663c2.064-1.195 4.26-2.033 6.465-2.033 1.93 0 3.447.674 3.99 2.25.218.626.272 1.251.272 2.39v9.45zM273.248 73.267v-8.825c0-1.22-.025-2.335-1.304-2.335-.73 0-1.438.328-2.415 1.115-.41.295-.84.73-1.25 1.22v8.825h-3.202V59.5h2.876l.11 2.2h.026c1.412-1.495 3.124-2.474 4.808-2.474 2.932 0 3.555 1.687 3.555 4.834v9.207zM284.954 73.538c-2.742 0-5.836-1.22-5.836-7.167 0-5.595 3.61-7.169 6.651-7.169 1.11 0 2.225.218 3.366.597l-.407 2.525c-1.385-.351-2.254-.487-3.148-.487-1.44 0-3.15.677-3.15 4.314 0 3.614 1.576 4.726 3.122 4.726.95 0 2.01-.325 3.53-1.086l.758 2.389c-1.653.869-3.31 1.358-4.886 1.358M297.773 61.672c-1.197 0-2.445.543-2.689 2.907h5.08c.054-1.876-.817-2.907-2.391-2.907m-.136 11.84c-3.26 0-5.92-1.495-5.92-6.98 0-5.211 3.203-7.303 6.435-7.303 3.07 0 5.296 1.682 5.296 6.055 0 .543-.028 1.222-.082 1.71h-8.364c.216 3.257 1.55 3.775 3.176 3.775 1.305 0 3.045-.46 4.944-1.087l.49 2.47c-2.335.926-4.075 1.36-5.975 1.36" style="stroke-width:2.3421"/></svg>