<svg xmlns="http://www.w3.org/2000/svg" xml:space="preserve" width="583.61914" height="227.98009" viewBox="0 0 583.61914 227.98008"><path d="M0 0a3.525 3.525 0 0 1-7.049 0A3.525 3.525 0 0 1 0 0" style="fill:#ef2d38;fill-opacity:1;fill-rule:nonzero;stroke:none" transform="matrix(1.33333 0 0 -1.33333 60.636 92.93)"/><path d="M0 0c-.034 2.908-1.234 5.475-6.25 5.506-4.988.004-9.109-3.129-11.077-5.479l2.639 13.258-.01-.033c.108.538.176 1.018.176 1.424-.036 1.089-.385 1.609-2.256 1.654-2.557-.033-3.267-.935-3.646-2.691l-6.299-31.666h5.807l1.87 9.399c.089.27.184.682.292 1.233.395 1.754 5.495 8.832 10.109 8.894.009 0 .039.005.057 0 2.064-.002 2.634-1.431 2.617-2.735 0-.574-.091-1.147-.179-1.623l-2.989-15.168h5.803L-.251-2.384C-.1-1.605 0-.789 0 0" style="fill:#ef2d38;fill-opacity:1;fill-rule:nonzero;stroke:none" transform="matrix(1.33333 0 0 -1.33333 42.491 87.845)"/><path d="m0 0-.007-.004h-.046c-2.216-.017-3.104-.772-3.512-1.643l-7.426-16.002-1.486 16.121c-.144 1.26-.657 1.434-1.221 1.524h-1.272c-2.257-.01-2.987-1.18-3.225-1.673l-7.411-15.968-1.413 15.324c-.254 2.075-.599 2.257-2.634 2.317-2.249-.04-2.695-.855-2.734-2.271 0-.197.009-.403.033-.621l2.084-20.641h5.972l7.146 14.841 1.497-14.841h5.97L1.198-.935H1.2l.001.008.091.183a.77.77 0 0 1 .08.295C1.371-.303 1.279-.023 0 0" style="fill:#ef2d38;fill-opacity:1;fill-rule:nonzero;stroke:none" transform="matrix(1.33333 0 0 -1.33333 113.403 80.499)"/><path d="M0 0c.004.007.966 6.454 6.842 6.7.093.005.181.008.271.008 1.357.001 2.227-.406 2.744-.967.518-.559.67-1.242.67-1.757 0-.066-.003-.127-.004-.194-.097-1.626-.986-4.077-8.209-4.077h-.189c-.598 0-1.239.016-1.927.046l-.232.01zm-.506-3.155.205-.017c.003 0 1.22-.099 2.945-.098 2.898-.008 7.219.296 9.368 1.76 2.62 1.773 3.633 3.869 3.638 6.131 0 .186-.008.375-.021.564-.179 2.404-2.447 4.968-8.171 4.982C1.001 10.155-5.044 6.574-6.165-1.428a20.174 20.174 0 0 1-.214-2.881c.026-5.993 3.096-9.053 9.444-9.398a20 20 0 0 1 1.126-.03c1.1 0 2.045.085 2.866.216l.243.044v-.002c1.113.202 1.972.498 2.632.809 1.727.753 2.82 1.705 3.184 2.051l-2.393 2.766c-1.062-.833-2.422-1.339-3.285-1.592a10.41 10.41 0 0 0-2.416-.259c-.322 0-.661.011-1.024.033-2.446.142-4.607 1.577-4.585 5.198 0 .349.016.723.06 1.115z" style="fill:#ef2d38;fill-opacity:1;fill-rule:nonzero;stroke:none" transform="matrix(1.33333 0 0 -1.33333 125.31 94.06)"/><path d="m0 0-.022-.156a6.276 6.276 0 0 1-.069-.892c.008-1.561.616-3.015 2.374-3.798.657-.288 1.533-.479 2.579-.479 1.376 0 3.046.337 4.911 1.229l-.76 3.066c-.465-.269-1.497-.812-2.365-.821-.326 0-.653.085-.894.327-.241.243-.365.61-.363 1.106 0 .254.032.545.101.878l4.806 25.649-.001.051c0 .086.008.185.031.292.101.54.165 1.021.164 1.427-.037 1.097-.358 1.609-2.098 1.654-2.132-.025-2.865-.754-3.27-2.136z" style="fill:#ef2d38;fill-opacity:1;fill-rule:nonzero;stroke:none" transform="matrix(1.33333 0 0 -1.33333 150.437 105.45)"/><path d="m0 0-.036-.243a5.948 5.948 0 0 1-.066-.901c.005-1.558.617-3.006 2.373-3.789.659-.288 1.532-.479 2.577-.479 1.375 0 3.048.337 4.916 1.229l-.765 3.066c-.464-.269-1.493-.812-2.361-.821-.329 0-.655.085-.894.327-.244.243-.368.612-.368 1.107 0 .255.033.546.101.877l4.808 25.664c0 .096.009.199.03.328.099.54.166 1.021.166 1.427-.038 1.101-.36 1.609-2.102 1.654-2.128-.025-2.862-.754-3.268-2.135Z" style="fill:#ef2d38;fill-opacity:1;fill-rule:nonzero;stroke:none" transform="matrix(1.33333 0 0 -1.33333 169.262 105.334)"/><path d="M0 0h2.191l4.962-9.527h.033V0h1.61v-11.833H6.734L1.643-2.102h-.032v-9.731H0Z" style="fill:#868377;fill-opacity:1;fill-rule:nonzero;stroke:none" transform="matrix(1.33333 0 0 -1.33333 6.925 211.886)"/><path d="M0 0c-.322 0-.644.033-.967.033-.821 0-2.851-.135-2.851-1.661 0-.915.837-1.408 1.53-1.408C-.79-3.036 0-2.053 0-.763zm-4.496 3.915c.758.475 1.661.814 2.708.814 2.352 0 3.303-1.221 3.303-3.577v-3.578c0-.982.031-1.44.065-1.694H.162v1.119H.128a3.009 3.009 0 0 0-2.545-1.323c-1.772 0-3.013.813-3.013 2.696 0 2.17 2.256 2.848 3.819 2.848.595 0 1.015 0 1.611-.034 0 1.493-.516 2.255-2.029 2.255-.855 0-1.773-.339-2.386-.882z" style="fill:#868377;fill-opacity:1;fill-rule:nonzero;stroke:none" transform="matrix(1.33333 0 0 -1.33333 30.058 222.17)"/><path d="M0 0h-2.175v-4.729c0-1.002.579-1.544 1.273-1.544.467 0 .805.152 1.03.305v-1.356c-.338-.101-.805-.238-1.289-.238-1.562 0-2.528.782-2.528 2.51V0h-1.854v1.289h1.854v1.999l1.514.509V1.289H0Z" style="fill:#868377;fill-opacity:1;fill-rule:nonzero;stroke:none" transform="matrix(1.33333 0 0 -1.33333 42.601 217.853)"/><path d="M121.639 213.35h1.516v-8.646h-1.516zm1.612 1.932h-1.708v1.796h1.708z" style="fill:#868377;fill-opacity:1;fill-rule:nonzero;stroke:none" transform="matrix(1.33333 0 0 -1.33333 -115.506 500.6)"/><path d="M0 0c1.772 0 2.562 1.695 2.562 3.238 0 1.645-.951 3.24-2.562 3.24-1.627 0-2.578-1.595-2.578-3.24C-2.578 1.695-1.788 0 0 0m0 7.765c2.498 0 4.173-1.899 4.173-4.527C4.173.764 2.465-1.288 0-1.288c-2.481 0-4.189 2.052-4.189 4.526 0 2.628 1.676 4.527 4.189 4.527" style="fill:#868377;fill-opacity:1;fill-rule:nonzero;stroke:none" transform="matrix(1.33333 0 0 -1.33333 58.538 226.218)"/><path d="M0 0h1.466v-1.373h.033c.45.982 1.546 1.575 2.69 1.575 2.127 0 3.077-1.389 3.077-3.713v-5.135H5.752v4.476c0 2.016-.419 2.998-1.741 3.085-1.723 0-2.497-1.458-2.497-3.561v-4H0Z" style="fill:#868377;fill-opacity:1;fill-rule:nonzero;stroke:none" transform="matrix(1.33333 0 0 -1.33333 68.095 216.134)"/><path d="M0 0c-.322 0-.645.033-.967.033-.822 0-2.852-.135-2.852-1.661 0-.915.838-1.408 1.531-1.408C-.789-3.036 0-2.053 0-.763zm-4.495 3.915c.757.475 1.659.814 2.706.814 2.353 0 3.303-1.221 3.303-3.577v-3.578c0-.982.033-1.44.065-1.694H.161v1.119H.129a3.012 3.012 0 0 0-2.546-1.323c-1.772 0-3.013.813-3.013 2.696 0 2.17 2.256 2.848 3.818 2.848.597 0 1.016 0 1.612-.034 0 1.493-.516 2.255-2.03 2.255-.854 0-1.773-.339-2.385-.882z" style="fill:#868377;fill-opacity:1;fill-rule:nonzero;stroke:none" transform="matrix(1.33333 0 0 -1.33333 89.016 222.17)"/><path d="M158.625 217.418h1.516v-12.715h-1.516z" style="fill:#868377;fill-opacity:1;fill-rule:nonzero;stroke:none" transform="matrix(1.33333 0 0 -1.33333 -115.506 500.6)"/><path d="M0 0h1.612v-4.95h5.381V0h1.611v-11.833H6.993v5.392H1.612v-5.392H0Z" style="fill:#868377;fill-opacity:1;fill-rule:nonzero;stroke:none" transform="matrix(1.33333 0 0 -1.33333 110.556 211.886)"/><path d="M0 0c0 1.323-.741 2.408-2.046 2.408-1.483 0-2.095-1.289-2.208-2.408Zm.983-4.798c-.58-.22-1.241-.559-2.594-.559-2.916 0-4.253 1.866-4.253 4.68 0 2.559 1.53 4.372 3.85 4.372 2.739 0 3.625-2.1 3.625-4.882h-5.865c0-1.712 1.273-2.882 2.708-2.882.998 0 2.159.542 2.529.866z" style="fill:#868377;fill-opacity:1;fill-rule:nonzero;stroke:none" transform="matrix(1.33333 0 0 -1.33333 134.142 220.792)"/><path d="M0 0c-.322 0-.645.033-.966.033-.823 0-2.852-.135-2.852-1.661 0-.915.837-1.408 1.53-1.408C-.79-3.036 0-2.053 0-.763zm-4.495 3.915c.758.475 1.66.814 2.706.814 2.353 0 3.304-1.221 3.304-3.577v-3.578c0-.982.032-1.44.064-1.694H.161v1.119H.129a3.012 3.012 0 0 0-2.546-1.323c-1.772 0-3.012.813-3.012 2.696 0 2.17 2.256 2.848 3.818 2.848.596 0 1.015 0 1.611-.034 0 1.493-.515 2.255-2.029 2.255-.854 0-1.773-.339-2.386-.882z" style="fill:#868377;fill-opacity:1;fill-rule:nonzero;stroke:none" transform="matrix(1.33333 0 0 -1.33333 146.792 222.17)"/><path d="M201.959 217.418h1.515v-12.715h-1.515z" style="fill:#868377;fill-opacity:1;fill-rule:nonzero;stroke:none" transform="matrix(1.33333 0 0 -1.33333 -115.506 500.6)"/><path d="M0 0h-2.175v-4.729c0-1.002.579-1.544 1.272-1.544.468 0 .807.152 1.032.305v-1.356c-.339-.101-.805-.238-1.289-.238-1.562 0-2.53.782-2.53 2.51V0h-1.853v1.289h1.853v1.999l1.515.509V1.289H0Z" style="fill:#868377;fill-opacity:1;fill-rule:nonzero;stroke:none" transform="matrix(1.33333 0 0 -1.33333 166.595 217.853)"/><path d="M0 0h1.515v-5.307h.031c.549.915 1.499 1.441 2.642 1.441 2.128 0 3.078-1.389 3.078-3.713v-5.136H5.751v4.477c0 2.015-.418 2.998-1.739 3.085-1.724 0-2.497-1.458-2.497-3.561v-4.001H0Z" style="fill:#868377;fill-opacity:1;fill-rule:nonzero;stroke:none" transform="matrix(1.33333 0 0 -1.33333 170.418 210.71)"/><path d="M230.842 216.536h1.61v-11.833h-1.61z" style="fill:#868377;fill-opacity:1;fill-rule:nonzero;stroke:none" transform="matrix(1.33333 0 0 -1.33333 -115.506 500.6)"/><path d="M0 0h1.466v-1.373h.033C1.95-.391 3.045.202 4.188.202c2.128 0 3.079-1.389 3.079-3.713v-5.135H5.751v4.476c0 2.016-.418 2.998-1.739 3.085-1.724 0-2.497-1.458-2.497-3.561v-4H0Z" style="fill:#868377;fill-opacity:1;fill-rule:nonzero;stroke:none" transform="matrix(1.33333 0 0 -1.33333 199.349 216.134)"/><path d="M0 0c.598-.405 1.452-.61 1.886-.61.693 0 1.547.305 1.547 1.237 0 1.577-3.561 1.443-3.561 3.867 0 1.796 1.273 2.66 2.9 2.66.709 0 1.289-.152 1.886-.339l-.13-1.39c-.338.221-1.24.442-1.595.442-.773 0-1.45-.34-1.45-1.052 0-1.762 3.56-1.254 3.56-4.017 0-1.849-1.401-2.696-2.867-2.696-.773 0-1.563.084-2.256.474z" style="fill:#868377;fill-opacity:1;fill-rule:nonzero;stroke:none" transform="matrix(1.33333 0 0 -1.33333 212.943 225.404)"/><path d="M0 0h-1.466v1.372h-.032C-1.95.39-3.044-.204-4.189-.204c-2.126 0-3.077 1.391-3.077 3.713v5.137h1.515V4.17c0-2.018.418-3 1.739-3.086 1.724 0 2.497 1.459 2.497 3.562v4H0Z" style="fill:#868377;fill-opacity:1;fill-rule:nonzero;stroke:none" transform="matrix(1.33333 0 0 -1.33333 233.093 227.663)"/><path d="M0 0h1.417v-1.341h.032c.404.9 1.273 1.543 2.143 1.543.452 0 .678-.05 1-.118v-1.425c-.275.12-.581.154-.838.154-1.354 0-2.24-1.356-2.24-3.526v-3.933H0Z" style="fill:#868377;fill-opacity:1;fill-rule:nonzero;stroke:none" transform="matrix(1.33333 0 0 -1.33333 237.817 216.134)"/><path d="M0 0c-.321 0-.644.033-.966.033-.822 0-2.852-.135-2.852-1.661 0-.915.837-1.408 1.53-1.408C-.789-3.036 0-2.053 0-.763zm-4.495 3.915c.758.475 1.66.814 2.707.814 2.352 0 3.303-1.221 3.303-3.577v-3.578c0-.982.032-1.44.065-1.694H.162v1.119H.129a3.01 3.01 0 0 0-2.546-1.323c-1.772 0-3.012.813-3.012 2.696 0 2.17 2.256 2.848 3.818 2.848.596 0 1.016 0 1.611-.034 0 1.493-.515 2.255-2.029 2.255-.854 0-1.772-.339-2.385-.882z" style="fill:#868377;fill-opacity:1;fill-rule:nonzero;stroke:none" transform="matrix(1.33333 0 0 -1.33333 253.969 222.17)"/><path d="M0 0h1.466v-1.373h.033C1.95-.391 3.045.202 4.189.202c2.127 0 3.078-1.389 3.078-3.713v-5.135H5.752v4.476c0 2.016-.419 2.998-1.74 3.085-1.724 0-2.497-1.458-2.497-3.561v-4H0Z" style="fill:#868377;fill-opacity:1;fill-rule:nonzero;stroke:none" transform="matrix(1.33333 0 0 -1.33333 260.69 216.134)"/><path d="M0 0c-.58.254-1.161.373-1.643.373-1.691 0-2.643-1.595-2.643-3.239 0-1.543.789-3.238 2.74-3.238.515 0 1.159.169 1.627.493l.112-1.426c-.628-.304-1.354-.356-1.901-.356-2.481 0-4.189 2.052-4.189 4.527 0 2.628 1.675 4.526 4.189 4.526.612 0 1.401-.152 1.836-.339z" style="fill:#868377;fill-opacity:1;fill-rule:nonzero;stroke:none" transform="matrix(1.33333 0 0 -1.33333 282.063 218.078)"/><path d="M0 0c0 1.323-.74 2.408-2.046 2.408-1.482 0-2.094-1.289-2.208-2.408Zm.984-4.798c-.581-.22-1.242-.559-2.595-.559-2.915 0-4.254 1.866-4.254 4.68 0 2.559 1.531 4.372 3.851 4.372 2.74 0 3.625-2.1 3.625-4.882h-5.865c0-1.712 1.274-2.882 2.708-2.882.998 0 2.159.542 2.53.866z" style="fill:#868377;fill-opacity:1;fill-rule:nonzero;stroke:none" transform="matrix(1.33333 0 0 -1.33333 293.016 220.792)"/><path d="m0 0-3.05-8.563h-1.277L-7.392 0h1.445l1.666-4.955c.314-.937.502-1.571.562-1.904h.031c.081.343.22.806.418 1.387L-1.399 0Z" style="fill:#868377;fill-opacity:1;fill-rule:nonzero;stroke:none" transform="matrix(1.33333 0 0 -1.33333 353.593 216.563)"/><path d="M355.645 213.112h1.516v-8.646h-1.516zm1.612 1.933h-1.708v1.796h1.708z" style="fill:#868377;fill-opacity:1;fill-rule:nonzero;stroke:none" transform="matrix(1.33333 0 0 -1.33333 -115.506 500.6)"/><path d="M0 0h1.418v-1.341h.031c.404.9 1.274 1.543 2.143 1.543.452 0 .678-.05 1-.118v-1.425c-.275.12-.581.154-.838.154-1.354 0-2.24-1.356-2.24-3.526v-3.933H0Z" style="fill:#868377;fill-opacity:1;fill-rule:nonzero;stroke:none" transform="matrix(1.33333 0 0 -1.33333 333.786 216.45)"/><path d="M0 0c0 1.323-.741 2.408-2.047 2.408-1.482 0-2.094-1.289-2.207-2.408Zm.982-4.798c-.58-.22-1.24-.559-2.593-.559-2.916 0-4.253 1.866-4.253 4.68 0 2.559 1.529 4.372 3.85 4.372 2.739 0 3.625-2.1 3.625-4.882h-5.865c0-1.712 1.273-2.882 2.707-2.882.998 0 2.159.542 2.529.866z" style="fill:#868377;fill-opacity:1;fill-rule:nonzero;stroke:none" transform="matrix(1.33333 0 0 -1.33333 326.747 220.836)"/><path d="M0 0c.811-.55 2.254-.545 2.842-.545.94 0 2.382.087 2.382 1.962 0 2.141-5.398 1.959-5.398 5.248 0 2.437 1.727 3.609 3.936 3.609.962 0 1.748-.207 2.557-.46l-.174-1.32c-.459.3-1.683.601-2.166.601-1.049 0-2.533-1.029-2.533-1.994 0-2.392 5.398-1.704 5.398-5.452 0-2.508-1.903-3.659-3.892-3.659-1.048 0-2.12.114-3.061.644z" style="fill:#868377;fill-opacity:1;fill-rule:nonzero;stroke:none" transform="matrix(1.33333 0 0 -1.33333 306.151 225.3)"/><path d="M0 0c-.579.254-1.161.373-1.644.373-1.691 0-2.642-1.595-2.642-3.239 0-1.543.789-3.238 2.74-3.238.515 0 1.159.169 1.627.493l.111-1.426c-.627-.304-1.353-.356-1.9-.356-2.481 0-4.189 2.052-4.189 4.527 0 2.628 1.675 4.526 4.189 4.526.611 0 1.401-.152 1.836-.339z" style="fill:#868377;fill-opacity:1;fill-rule:nonzero;stroke:none" transform="matrix(1.33333 0 0 -1.33333 373.097 218.123)"/><path d="M0 0c0 1.323-.74 2.408-2.046 2.408-1.482 0-2.094-1.289-2.208-2.408Zm.984-4.798c-.581-.22-1.242-.559-2.595-.559-2.915 0-4.254 1.866-4.254 4.68 0 2.559 1.531 4.372 3.851 4.372 2.74 0 3.625-2.1 3.625-4.882h-5.865c0-1.712 1.274-2.882 2.708-2.882.998 0 2.159.542 2.53.866z" style="fill:#868377;fill-opacity:1;fill-rule:nonzero;stroke:none" transform="matrix(1.33333 0 0 -1.33333 384.05 220.836)"/><path d="M168.531 258.266h-12.86v17.881h12.86zm7.991-1.114v23.975h-28.843v-23.975a3.878 3.878 0 0 1 3.871-3.867h21.104a3.873 3.873 0 0 1 3.868 3.867m15.91 25.137h-7.995v-38.543h7.995zm-16.993-49.079v.056-.056c-4.974.001-8.933.311-11.066.92-2.106.578-3.205 1.599-3.205 2.978 0 0 .004 0 .004.004v9.237h-7.995v-9.237c0-1.342.182-4.509 2.922-6.381 2.86-2.019 14.221-2.644 19.077-2.639h.263c4.61 0 13.178.888 17.472 1.946v5.103c-2.009-.458-9.061-1.93-17.472-1.931" style="fill:#868377;fill-opacity:1;fill-rule:nonzero;stroke:none" transform="matrix(1.33333 0 0 -1.33333 -115.506 500.6)"/><path d="M0 0c0-3.418-.659-7.154-1.044-8.223l7.369-.028C7.691-5.83 7.972-1.379 7.99.004l.004.133v7.176a3.872 3.872 0 0 1-3.872 3.87l-36.345.003V6.201H0Zm12.827-13.228v4.977h-50.195v-4.977h21.618v-7.733h-16.675v-4.978H-.133v-14.963h7.992v16.088a3.866 3.866 0 0 1-3.858 3.853H-7.754v7.733z" style="fill:#868377;fill-opacity:1;fill-rule:nonzero;stroke:none" transform="matrix(1.33333 0 0 -1.33333 49.824 140.681)"/><path d="m330.763 254.081-.021.002c-1.951.376-2.7 1.708-2.7 2.884 0 .026 0 .052.007.078v9.031h21.98l.003-9.03v-.073c.002-1.182-.753-2.52-2.73-2.899-1.75-.284-4.534-.605-8.261-.605-3.73 0-6.524.324-8.278.612m12.306-17.1v11.598h.052l.38.023c3.36.188 6.245.62 9.425 1.307.125.031.263.071.41.103 4.228.936 4.646 3.615 4.689 5.25v25.86h-7.993v-10.065h-21.983l-.003 10.065h-7.988v-25.86c.03-1.59.452-4.163 4.345-5.165 3.592-.786 6.813-1.274 10.24-1.48l.433-.027v-11.61H313.65v-4.985h50.78v4.985zm-12.37 17.167v.002c-.03.002-.051.018-.082.02.03-.002.052-.018.082-.022" style="fill:#868377;fill-opacity:1;fill-rule:nonzero;stroke:none" transform="matrix(1.33333 0 0 -1.33333 -115.506 500.6)"/><path d="M0 0v.056V0c-4.973.001-8.935.311-11.068.92-2.106.578-3.205 1.599-3.205 2.978 0 0 .003 0 .003.004v9.237h-7.993V3.902c0-1.342.18-4.509 2.923-6.381C-16.48-4.498-5.122-5.123-.262-5.118H0c4.609 0 13.176.889 17.472 1.946v5.103C15.462 1.473 8.407.001 0 0m-1.543 31.638H8.998V10.536h7.994v38.543h-7.99V36.616H-.489c.062.618.107 1.253.13 1.911l.012.443h.02v5.072a3.874 3.874 0 0 1-3.87 3.87h-22.614v-4.979h18.47V39.44c0-4.894-1.686-9.086-4.91-12.033-3.146-2.879-7.957-4.554-13.791-4.633v-4.98c2.555.006 8.948.164 14.668 2.609 4.563 1.962 8.824 5.308 10.831 11.235" style="fill:#868377;fill-opacity:1;fill-rule:nonzero;stroke:none" transform="matrix(1.33333 0 0 -1.33333 192.692 189.654)"/><path d="M0 0c-4.135 0-7.203 3.365-7.203 7.519 0 4.149 3.046 7.517 7.203 7.517 4.105 0 7.2-3.368 7.2-7.517C7.2 3.365 4.156 0 0 0m20.971 25.284V10.661h-6.223c-.642 2.231-1.949 4.233-3.804 5.811h4.66v4.979H3.924v4.995h-7.992v-4.995H-15.75v-4.979h4.756c-2.674-2.292-4.216-5.456-4.216-8.953C-15.21.529-8.994-5.139 0-5.139c8.228 0 14.065 4.704 15.046 10.82h5.925V-4.733h7.991v30.017zm-22.69-45.636v6.405h22.692v-6.405l-.002-.085c.002-1.22-.802-2.614-2.917-2.927-.019-.007-.045-.013-.077-.021-1.711-.271-4.433-.544-7.88-.544-3.504 0-7.174.286-8.885.558-2.128.316-2.939 1.71-2.938 2.934 0 .029 0 .062.007.085m-7.997-1.774c.04-1.622.46-4.267 4.585-5.225 4.888-1.07 10.079-1.555 15.228-1.555 5.41.002 9.271.428 13.589 1.362.168.064.362.12.591.168 4.228.94 4.648 3.613 4.685 5.246v13.163H-9.716Z" style="fill:#868377;fill-opacity:1;fill-rule:nonzero;stroke:none" transform="matrix(1.33333 0 0 -1.33333 399.205 157.927)"/><path d="M0 0c-6.061 0-10.127 3.298-10.127 7.368S-6.124 14.735 0 14.735c6.016 0 10.127-3.297 10.127-7.367S6.268 0 0 0m0 19.885c-11.119 0-18.658-5.603-18.658-12.517C-18.658.455-11.373-5.147 0-5.147c11.39 0 18.658 5.602 18.658 12.515 0 6.914-7.519 12.517-18.658 12.517m17.951 20.9v9.964H9.958V20.731h7.993v15.076h7.093v4.978zm-16.2-.13.012.449h.022v4.608a3.873 3.873 0 0 1-3.871 3.87h-22.618v-4.976h18.472v-3.025c0-.014-.002-.022-.002-.027 0-4.886-1.688-8.864-4.922-11.58-3.152-2.649-7.955-4.085-13.774-4.158v-4.983c.256-.004.546-.004.869-.004h.045c3.194 0 9.675.208 15.168 2.774 5.515 2.595 10.268 7.451 10.599 17.052" style="fill:#868377;fill-opacity:1;fill-rule:nonzero;stroke:none" transform="matrix(1.33333 0 0 -1.33333 263.149 191.88)"/><path d="m475.894 301.703-.128 5.388c-20.965.056-30.15 13.177-30.243 23.83-.07 8.166 5.538 16.813 14.85 16.895 7.853.071 11.783-6.132 11.783-6.132s3.285 6.307 11.993 6.384c6.209.053 14.559-5.165 14.665-17.254.1-11.364-8.096-23.822-22.92-29.11m-4.032 73.744c-28.451-.249-51.895-21.062-51.658-47.9.116-13.389 7.013-27.078 19.317-36.108l-3.196-15.443c60.022-17.32 88.246 26.313 88.018 52.354-.232 26.543-23.525 47.35-52.481 47.097" style="fill:#ef2d38;fill-opacity:1;fill-rule:nonzero;stroke:none" transform="matrix(1.33333 0 0 -1.33333 -115.506 500.6)"/><path d="m0 0-.486 20.579c-9.055-3.232-20.581-3.791-34.203.211l-2.17-10.474C-27.501 3.451-15.016-.719 0 0" style="fill:#831418;fill-opacity:1;fill-rule:nonzero;stroke:none" transform="matrix(1.33333 0 0 -1.33333 519.667 125.768)"/></svg>