<svg xmlns="http://www.w3.org/2000/svg" xml:space="preserve" width="1000px" height="117px" x="0px" y="0px" viewBox="0 0 1000 117"><g fill="#243B7C"><path d="M1 6.604h24.182L71.62 80.115V6.604h22.673v108.684h-24.32L23.807 42.054v73.234H1zM115.724 6.604h24.182v108.685h-24.182zM203.796 33.122l-29.538 82.166h-24.595L191.569 6.604h24.869l41.356 108.684h-25.279z"/><path d="m226.056 80.115 6.459 17.721h-57.848l6.323-17.721z"/></g><g fill="#0067AF"><path d="M299.364 92.004h5.075l9.683 15.568h.064V92.004h4.773v23.204h-5.102l-9.65-15.534h-.065v15.534h-4.778zM329.781 92.004h5.229l8.683 23.204h-5.302l-1.757-5.17h-8.671l-1.821 5.17h-5.17l8.809-23.204zm-.485 14.231h6.009l-2.922-8.511h-.065l-3.022 8.511zM348.437 96.291h-6.956v-4.287h19.01v4.287h-6.958v18.917h-5.096zM363.151 92.004h5.104v23.206h-5.104zM383.138 91.451c7.183 0 11.406 5.361 11.406 12.248 0 6.698-4.224 12.058-11.406 12.058s-11.407-5.359-11.407-12.058c-.001-6.886 4.225-12.248 11.407-12.248m0 20.015c4.581 0 6.299-3.894 6.299-7.767 0-4.062-1.718-7.957-6.299-7.957s-6.304 3.896-6.304 7.957c0 3.873 1.723 7.767 6.304 7.767M398.021 92.004h5.069l9.681 15.568h.065V92.004h4.779v23.204h-5.103l-9.648-15.534h-.065v15.534h-4.778zM428.433 92.004h5.227l8.684 23.204h-5.297l-1.758-5.17h-8.674l-1.818 5.17h-5.169l8.805-23.204zm-.486 14.231h6.009l-2.924-8.511h-.064l-3.021 8.511zM444.355 92.004h5.102v18.909h11.309v4.295h-16.411zM472.656 92.004h5.105v23.206h-5.105zM482.238 92.004h5.075l9.683 15.568h.065V92.004h4.777v23.204h-5.104l-9.642-15.534h-.071v15.534h-4.783zM506.326 92.004h16.31v4.287h-11.207v5.363h9.717v3.967h-9.717v9.587h-5.103zM535.988 91.451c7.19 0 11.405 5.361 11.405 12.248 0 6.698-4.215 12.058-11.405 12.058-7.173 0-11.407-5.359-11.407-12.058 0-6.886 4.234-12.248 11.407-12.248m0 20.015c4.583 0 6.308-3.894 6.308-7.767 0-4.062-1.725-7.957-6.308-7.957-4.574 0-6.305 3.896-6.305 7.957.001 3.873 1.731 7.767 6.305 7.767M550.871 92.004h12.512c4.156 0 6.788 2.889 6.788 6.406 0 2.727-1.1 4.774-3.67 5.807v.067c2.501.651 3.221 3.088 3.383 5.431.096 1.459.066 4.189.975 5.493h-5.106c-.618-1.47-.551-3.706-.815-5.561-.347-2.437-1.297-3.507-3.862-3.507h-5.094v9.067h-5.109V92.004zm5.109 10.491h5.59c2.267 0 3.505-.965 3.505-3.308 0-2.245-1.238-3.217-3.505-3.217h-5.59v6.525zM574.325 92.004h7.193l5.424 15.951h.065l5.133-15.951h7.179v23.204h-4.779V98.759h-.061l-5.683 16.449h-3.936l-5.682-16.283h-.068v16.283h-4.785zM610.142 92.004h5.231l8.674 23.204h-5.294l-1.753-5.17h-8.677l-1.822 5.17h-5.16l8.801-23.204zm-.49 14.231h6.011l-2.918-8.511h-.07l-3.023 8.511zM628.79 96.291h-6.95v-4.287h19.006v4.287h-6.945v18.917h-5.111zM643.516 92.004h5.098v23.206h-5.098zM663.499 91.451c7.184 0 11.405 5.361 11.405 12.248 0 6.698-4.222 12.058-11.405 12.058-7.185 0-11.399-5.359-11.399-12.058 0-6.886 4.214-12.248 11.399-12.248m0 20.015c4.578 0 6.301-3.894 6.301-7.767 0-4.062-1.723-7.957-6.301-7.957-4.582 0-6.31 3.896-6.31 7.957 0 3.873 1.728 7.767 6.31 7.767M678.377 92.004h5.071l9.69 15.568h.056V92.004h4.78v23.204h-5.099l-9.656-15.534h-.063v15.534h-4.779zM714.967 107.503c0 3.088 2.403 4.295 5.135 4.295 1.791 0 4.524-.525 4.524-2.895 0-2.5-3.479-2.931-6.892-3.837-3.45-.908-6.926-2.241-6.926-6.592 0-4.749 4.484-7.023 8.677-7.023 4.842 0 9.297 2.11 9.297 7.474h-4.945c-.159-2.798-2.138-3.513-4.579-3.513-1.623 0-3.511.686-3.511 2.639 0 1.782 1.1 2.01 6.921 3.507 1.688.42 6.892 1.492 6.892 6.761 0 4.256-3.351 7.438-9.651 7.438-5.139 0-9.942-2.533-9.878-8.254h4.936zM742.976 91.451c7.182 0 11.407 5.361 11.407 12.248 0 6.698-4.226 12.058-11.407 12.058-7.176 0-11.397-5.359-11.397-12.058-.001-6.886 4.221-12.248 11.397-12.248m0 20.015c4.585 0 6.309-3.894 6.309-7.767 0-4.062-1.724-7.957-6.309-7.957-4.577 0-6.297 3.896-6.297 7.957 0 3.873 1.719 7.767 6.297 7.767M773.323 99.8c-.319-2.307-2.529-4.058-5.066-4.058-4.579 0-6.303 3.896-6.303 7.957 0 3.873 1.724 7.767 6.303 7.767 3.119 0 4.875-2.145 5.267-5.195h4.944c-.527 5.782-4.528 9.486-10.211 9.486-7.176 0-11.399-5.359-11.399-12.058 0-6.887 4.224-12.248 11.399-12.248 5.103 0 9.397 2.989 10.014 8.349h-4.948zM781.937 92.004h5.107v23.206h-5.107zM791.528 92.004h17.351v4.287h-12.246v4.974h11.237v3.965h-11.237v5.683h12.507v4.295h-17.612zM817.716 96.291h-6.955v-4.287h19.01v4.287h-6.954v18.917h-5.101zM838.444 106.172 829.9 92.004h5.753l5.424 9.164 5.397-9.164h5.685l-8.603 14.301v8.903h-5.112zM869.48 92.004h5.229l8.679 23.204h-5.298l-1.758-5.17h-8.677l-1.814 5.17h-5.17l8.809-23.204zm-.49 14.231h6.013l-2.926-8.511h-.067l-3.02 8.511zM902.166 112.574c-1.784 2.306-4.125 3.183-6.363 3.183-7.183 0-11.412-5.359-11.412-12.058 0-6.887 4.229-12.246 11.412-12.246 4.742 0 9.223 2.927 9.773 8.185h-4.871c-.582-2.565-2.502-3.896-4.902-3.896-4.588 0-6.308 3.896-6.308 7.957 0 3.873 1.72 7.769 6.308 7.769 3.309 0 5.229-1.787 5.517-5.006h-5.13v-3.797h9.746v12.543h-3.25l-.52-2.634zM910.063 92.004h17.351v4.287h-12.251v4.974h11.242v3.965h-11.242v5.683h12.51v4.295h-17.61zM931.116 92.004h5.069l9.692 15.568h.061V92.004h4.775v23.204h-5.099l-9.652-15.534h-.065v15.534h-4.781zM970.669 99.8c-.33-2.307-2.534-4.058-5.078-4.058-4.578 0-6.296 3.896-6.296 7.957 0 3.873 1.718 7.767 6.296 7.767 3.125 0 4.88-2.145 5.267-5.195h4.943c-.521 5.782-4.524 9.486-10.21 9.486-7.175 0-11.4-5.359-11.4-12.058 0-6.887 4.226-12.248 11.4-12.248 5.109 0 9.396 2.989 10.012 8.349h-4.934zM985.286 106.172l-8.542-14.168h5.75l5.427 9.164 5.391-9.164H999l-8.613 14.301v8.903h-5.101z"/></g><path fill="#0067AF" d="M314.705 50.078H304.01v21.474c0 1.142.527 1.754 1.754 1.754h42.869v-6.924h-33.05c-.527 0-.878-.351-.878-.879V50.078zm15.43-31.474v-6.93h-41.379v6.93h41.379zM346.88 4.138h-10.52v49.707h10.52V4.138zm-54.442 24.284c0 9.815 7.538 16.218 17.008 16.218 9.38 0 17.009-6.402 17.009-16.218 0-9.817-7.629-16.307-17.009-16.307-9.469 0-17.008 6.489-17.008 16.307zm11.484-15.868h11.047V2.118h-11.047v10.436zm40.328 17.094h12.801v-7.101H344.25v7.101zm-41.293-1.403c0-5.872 2.896-9.641 6.489-9.641 3.507 0 6.4 3.769 6.4 9.641 0 5.786-2.894 9.558-6.4 9.558-3.593 0-6.489-3.772-6.489-9.558zm99.683 45.942h10.607V50.691c0-1.229-.614-1.756-1.754-1.756H366.87v6.926h34.894c.525 0 .876.353.876.878v17.448zm-.089-42.346h10.609V6.94c0-1.227-.438-1.753-1.754-1.753h-45.5v6.928h35.768c.526 0 .877.348.877.876v18.85zm-42.082 5.61h58.478v-7.104h-58.478v7.104zm34.454-1.84h-10.431v15.08h10.431v-15.08zm221.28 28.139H673.8v-7.098h-57.597v7.098zm34.105-24.284H639.7v18.938h10.608V39.466zm15.867 3.509c1.314 0 1.751-.528 1.751-1.755V5.803h-10.518v29.368c0 .528-.35.877-.877.877h-23.06c-.521 0-.874-.349-.874-.877V5.803h-10.521V41.22c0 1.227.439 1.755 1.754 1.755h42.345zm-36.296-18.412h30.426v-7.012h-30.426v7.012zM598.755 4.138h10.525V43.94h-10.525V4.138zm2.635 22.267h-14.731v-6.838h14.731v6.838zM804.606 4.138h-10.524v68.291h10.524V4.138zM746.74 60.157h50.151v-7.099H746.74v7.099zm112.313-6.312h10.519V4.138h-10.519v49.707zm-8.243-41.117V5.803h-36.296v6.925h36.296zm-13.675 36.471H826.44v22.353c0 1.142.523 1.754 1.753 1.754h42.866v-6.924h-33.05c-.528 0-.875-.351-.875-.879V49.199zm93.1-34.104V8.608h-47.163v6.486h47.163zm-41.642 6.574c0 7.454 7.981 12.362 17.972 12.362 9.822 0 17.976-4.908 17.976-12.362 0-7.541-8.153-12.448-17.976-12.448-9.991 0-17.972 4.907-17.972 12.448zm12.451-12.623h11.046V1.243h-11.046v7.803zm-2.017 12.184c0-3.68 3.33-6.136 7.537-6.136 4.123 0 7.453 2.456 7.453 6.136 0 3.684-3.33 6.051-7.453 6.051-4.207 0-7.537-2.367-7.537-6.051zm87.935 36.385h10.519V4.138h-10.519v53.477zm2.628-12.975h-16.045v6.838h16.045V44.64zm-49.707-3.948h42.868v-7.099h-42.868v7.099zm25.862-2.1H955.22v12.1h10.525v-12.1zm-20.778-22.27c0 8.679 7.276 14.292 16.309 14.292 9.029 0 16.392-5.613 16.392-14.292 0-8.68-7.362-14.377-16.392-14.377-9.033 0-16.309 5.698-16.309 14.377zm10.518 0c0-4.647 2.544-7.54 5.79-7.54 3.239 0 5.783 2.893 5.783 7.54 0 4.559-2.544 7.452-5.783 7.452-3.246 0-5.79-2.893-5.79-7.452zm8.681 37.698h-10.697v17.532c0 1.142.527 1.754 1.751 1.754h43.749v-6.924h-33.927c-.527 0-.876-.351-.876-.879V54.02zM488.991 41.747h58.479v-7.104h-58.479v7.104zm-25.773-29.019V5.803h-36.646v6.925h36.646zm18.412-8.59h-10.521v68.291h10.521V4.138zm24.109.699H495.13v21.478c0 1.23.438 1.756 1.755 1.756h46.113v-6.928h-36.382c-.525 0-.877-.351-.877-.876V4.837zm227.241-.699h-10.522v68.291h10.522V4.138zm-2.627 24.634h12.793v-7.104h-12.793v7.104zm147.194 15.253h58.479v-7.099h-58.479v7.099zm-285.452-9.642c-9.56-2.452-14.731-9.382-14.731-19.114V9.923h-10.255v3.507c0 14.992 8.941 24.984 24.986 27.965v-7.012zm-39.807 7.89c16.05-2.982 24.901-12.977 24.901-27.965v-2.634h-10.254v4.473c0 9.73-5.088 16.654-14.647 19.111v7.015zm37.791-29.545V5.803h-35.422v6.925h35.422zm263.095 25.423c-9.817-2.104-15.518-9.202-15.518-19.288v-8.504h-10.255v6.664c0 15.343 9.469 25.514 25.772 28.142v-7.014zm-40.586 7.718c16.039-2.981 24.894-12.978 24.894-27.969v-5.785h-10.259v7.627c0 9.731-5.082 16.657-14.635 19.11v7.017zm-346.915-1.58c-9.818-2.104-15.779-11.835-15.779-21.916V10.359h-10.258v10.172c0 15.342 9.73 28.141 26.037 30.771v-7.013zm-41.115 6.837c16.041-2.979 25.159-14.727 25.159-29.719v-9.292h-10.256v11.134c0 9.729-5.349 18.411-14.903 20.866v7.011zm292.467-6.837c-9.82-2.104-15.784-12.712-15.784-22.795V4.924h-10.256v14.73c0 15.34 9.731 29.018 26.04 31.648v-7.013zm-41.118 6.837c16.043-2.979 25.163-15.604 25.163-30.595V4.924h-10.26v17.449c0 9.729-5.347 19.287-14.903 21.742v7.011zm98.1-10.956h-10.519v15.078h10.519V40.17zm14.994-21.566v-6.93h-40.503v6.93h40.503zm-37.173 9.028c0 9.379 7.453 15.43 16.921 15.43 9.385 0 16.922-6.051 16.922-15.43 0-9.381-7.537-15.517-16.922-15.517-9.468 0-16.921 6.136-16.921 15.517zm11.396-15.078h11.046V2.118h-11.046v10.436zm-.877 14.901c0-5.522 2.719-8.851 6.402-8.851 3.595 0 6.313 3.328 6.313 8.851 0 5.437-2.718 8.77-6.313 8.77-3.684 0-6.402-3.333-6.402-8.77zm124.055 33.842c0 8.683 8.941 14.378 20.162 14.378 11.137 0 20.166-5.695 20.166-14.378 0-8.767-9.029-14.467-20.166-14.467-11.22 0-20.162 5.7-20.162 14.467zm10.519 0c0-4.558 4.472-7.627 9.644-7.627 5.088 0 9.558 3.069 9.558 7.627 0 4.56-4.47 7.539-9.558 7.539-5.172 0-9.644-2.98-9.644-7.539zm-399.074-.438c0 8.943 8.855 14.815 20.164 14.815 11.223 0 20.166-5.872 20.166-14.815 0-9.031-8.943-14.905-20.166-14.905-11.309 0-20.164 5.874-20.164 14.905zm10.52 0c0-4.822 4.298-8.068 9.644-8.068 5.265 0 9.558 3.246 9.558 8.068 0 4.82-4.293 7.977-9.558 7.977-5.346 0-9.644-3.156-9.644-7.977zm58.041-1.053c0 9.646 8.855 15.869 19.639 15.869 10.871 0 19.813-6.224 19.813-15.869 0-9.643-8.941-15.955-19.813-15.955-10.783 0-19.639 6.312-19.639 15.955zm10.523 0c0-5.607 4.116-9.114 9.116-9.114 5.081 0 9.204 3.507 9.204 9.114 0 5.523-4.123 9.03-9.204 9.03-5 0-9.116-3.507-9.116-9.03z"/></svg>